<?xml version="1.0" encoding="UTF-8"?>
<svg id="Layer_1" data-name="Layer 1" xmlns="http://www.w3.org/2000/svg" version="1.1" viewBox="0 0 1178.3 200">
  <defs>
    <style>
      .cls-1 {
        fill: #fff;
        stroke-width: 0px;
      }
    </style>
  </defs>
  <g id="Layer_3" data-name="Layer 3">
    <g>
      <polygon class="cls-1" points="1139 11.4 1139 125.7 1084.2 11.4 1058 11.4 1058 188.6 1084.2 188.6 1084.2 71.3 1138.8 188.3 1139 188.6 1165.2 188.6 1165.2 11.4 1139 11.4"/>
      <path class="cls-1" d="M187.1,22.4c-6.1,5.7-13.4,16.4-13.4,34.7v131.7h26.2v-76.2h17.7c32.6,0,39.5,14.7,42.2,30.5,1.6,9.3,1.3,36.4,1.1,45.5h26.1c.1-3.6.8-36.5-1.5-49.9-2.8-16.3-9.3-27.8-17.9-35.7,2.3-1.6,4.5-3.4,6.5-5.3,13.6-13.7,14-31.2,14-33.1V10.6h-67.7c-3.7,0-20.5,0-33.3,11.8ZM261.9,64.6c-.1,5.1-2.5,21.9-28.5,21.9h-33.6v-29.4c0-7.1,1.7-12.3,5-15.5,4.5-4.3,11.9-4.9,14.3-4.8h42.8v27.8Z"/>
      <path class="cls-1" d="M629.7,162.2c-8.2-1.1-20.1-3.7-26.2-9.5-4.4-4.2-8.5-12.9-8.5-20.2V47.6h-26.2v84.9c0,7.3-4.5,16.1-8.9,20.2-6.2,5.8-17.6,8.4-25.8,9.5V11.6h-26.1v177.9l12.2.8c.7,0,2.3.1,4.6.1,10.4,0,38.9-1.8,55.3-17.1.6-.6,1.2-1.3,1.8-1.9.6.6,1.2,1.3,1.8,1.9,16.4,15.4,44.9,17.1,55.3,17.1s3.9-.1,4.6-.1l12.2-.8V11.6h-26.2v150.6h.1Z"/>
      <path class="cls-1" d="M943.7,9.6c-36.1,0-61.4,23.9-61.4,58.2v64.3c0,34.3,25.2,58.2,61.4,58.2s61.4-24,61.4-58.2v-64.3c0-34.3-25.3-58.2-61.4-58.2ZM978.9,132.1c0,20.1-13.2,32.1-35.2,32.1s-35.2-12-35.2-32.1v-64.3c0-20.1,13.2-32.1,35.2-32.1s35.2,12,35.2,32.1v64.3Z"/>
      <polygon class="cls-1" points="801.6 86.8 741.5 86.8 741.5 11.6 715.3 11.6 715.3 188.8 741.5 188.8 741.5 113 801.6 113 801.6 188.8 827.7 188.8 827.7 11.6 801.6 11.6 801.6 86.8"/>
      <polygon class="cls-1" points="13.2 188.9 118.9 188.9 118.9 162.9 39.3 162.9 39.3 111.6 89.4 111.6 89.4 85.4 39.3 85.4 39.3 37.5 118.9 37.5 118.9 11.3 13.2 11.3 13.2 188.9"/>
      <polygon class="cls-1" points="346.9 188.9 452.6 188.9 452.6 162.9 373 162.9 373 111.6 423.1 111.6 423.1 85.4 373 85.4 373 37.5 452.6 37.5 452.6 11.3 346.9 11.3 346.9 188.9"/>
    </g>
  </g>
</svg>